<svg width="65" height="65" viewBox="0 0 65 65" fill="none" xmlns="http://www.w3.org/2000/svg">
<path d="M23.8852 27.8031H23.568V23.0429C23.568 22.195 22.5394 21.7727 21.9429 22.3698L20.6733 23.6391C20.3016 24.011 20.3016 24.6137 20.6733 24.9854C20.9413 25.2532 21.329 25.3277 21.6639 25.2102V27.8031H21.3466C20.8208 27.8031 20.3945 28.2292 20.3945 28.7552C20.3945 29.2811 20.8207 29.7072 21.3466 29.7072H23.8852C24.4111 29.7072 24.8374 29.2811 24.8374 28.7552C24.8374 28.2292 24.4111 27.8031 23.8852 27.8031Z" fill="#FF5C00"/>
<path d="M28.7801 22.0909C27.2053 22.0909 25.9242 23.3721 25.9242 24.9469V26.851C25.9242 28.4257 27.2053 29.7071 28.7801 29.7071C30.3551 29.7071 31.6363 28.4257 31.6363 26.851V24.9469C31.6363 23.372 30.3551 22.0909 28.7801 22.0909ZM29.7323 26.8511C29.7323 27.3762 29.3052 27.8031 28.7801 27.8031C28.2553 27.8031 27.8282 27.3762 27.8282 26.8511V24.9471C27.8282 24.422 28.2553 23.9951 28.7801 23.9951C29.3052 23.9951 29.7323 24.422 29.7323 24.9471V26.8511Z" fill="#FF5C00"/>
<path d="M35.582 22.0909C34.0072 22.0909 32.7261 23.3721 32.7261 24.9469V26.851C32.7261 28.4257 34.0072 29.7071 35.582 29.7071C37.157 29.7071 38.4382 28.4257 38.4382 26.851V24.9469C38.4382 23.372 37.1571 22.0909 35.582 22.0909ZM36.5342 26.8511C36.5342 27.3762 36.1071 27.8031 35.582 27.8031C35.0572 27.8031 34.6301 27.3762 34.6301 26.8511V24.9471C34.6301 24.422 35.0572 23.9951 35.582 23.9951C36.1071 23.9951 36.5342 24.422 36.5342 24.9471V26.8511Z" fill="#FF5C00"/>
<path d="M40.48 23.9938C41.0057 23.9938 41.4321 23.5676 41.4321 23.0418C41.4321 22.5158 41.0057 22.0898 40.48 22.0898C39.9541 22.0898 39.528 22.5158 39.528 23.0418C39.528 23.5675 39.9541 23.9938 40.48 23.9938Z" fill="#FF5C00"/>
<path d="M44.1156 22.2096C43.6558 21.9543 43.0764 22.1199 42.8211 22.5796L39.6479 28.2914C39.3926 28.751 39.5583 29.3307 40.0178 29.586C40.475 29.8398 41.0558 29.6775 41.3125 29.2159L44.4856 23.5043C44.7407 23.0446 44.5753 22.465 44.1156 22.2096Z" fill="#FF5C00"/>
<path d="M43.6534 27.8019C43.1276 27.8019 42.7013 28.2281 42.7013 28.7538C42.7013 29.2797 43.1275 29.7058 43.6534 29.7058C44.1792 29.7058 44.6055 29.2797 44.6055 28.7538C44.6055 28.2281 44.1792 27.8019 43.6534 27.8019Z" fill="#FF5C00"/>
<path d="M0.952148 35.3567C1.47799 35.3567 1.9043 34.9305 1.9043 34.4046C1.9043 33.8795 2.33137 33.4524 2.85645 33.4524H62.1436C62.6686 33.4524 63.0957 33.8795 63.0957 34.4046C63.0957 34.9305 63.5219 35.3567 64.0479 35.3567C64.5738 35.3567 65 34.9305 65 34.4046C65 32.8296 63.7185 31.5481 62.1436 31.5481H61.2292C61.0742 31.1275 60.818 30.7458 60.4764 30.4417L57.2562 27.5759L59.1345 23.6961C59.8538 22.2106 59.1124 20.4321 57.5592 19.8923L53.4874 18.477L53.738 14.1736C53.834 12.5284 52.4709 11.1667 50.8268 11.2624L46.5234 11.513L45.1081 7.44138C44.5674 5.88506 42.7875 5.1481 41.3043 5.86577L37.4244 7.74417L34.5587 4.524C33.4615 3.29141 31.5366 3.29382 30.4416 4.524L27.5759 7.74417L23.6958 5.86577C22.216 5.14924 20.434 5.88202 19.892 7.44113L18.4768 11.513L14.1734 11.2624C12.5322 11.1662 11.1663 12.5259 11.2621 14.1736L11.5127 18.477L7.44123 19.8923C5.88453 20.4331 5.14795 22.2134 5.86561 23.6961L7.74389 27.5759L4.52372 30.4417C4.18209 30.7459 3.9259 31.1275 3.77089 31.5481H2.85645C1.28134 31.5481 0 32.8296 0 34.4046C0 34.9305 0.426309 35.3567 0.952148 35.3567ZM9.54738 28.52C9.86553 28.2371 9.95693 27.7771 9.77146 27.3938L7.57948 22.8664C7.35731 22.4075 7.58367 21.8591 8.06622 21.6911L12.8176 20.0394C13.2198 19.8997 13.4803 19.5098 13.4555 19.0848L13.1631 14.0629C13.1336 13.5554 13.5505 13.1345 14.0626 13.1634L19.0844 13.4558C19.5104 13.4805 19.8993 13.22 20.0392 12.818L21.6908 8.0665C21.8576 7.58636 22.4051 7.3562 22.866 7.57976L27.3937 9.77173C27.7767 9.95696 28.2368 9.86568 28.5199 9.54766L31.864 5.78985C32.2031 5.40899 32.7964 5.40823 33.1362 5.78985L36.4804 9.54766C36.7635 9.86568 37.2235 9.95708 37.6064 9.77173L42.1342 7.57963C42.5942 7.35721 43.1418 7.58471 43.3094 8.0665L44.9611 12.818C45.101 13.22 45.491 13.4807 45.9158 13.4558L50.9378 13.1634C51.4484 13.1345 51.8668 13.5539 51.8371 14.0629L51.5447 19.0848C51.52 19.5098 51.7804 19.8997 52.1826 20.0394L56.9342 21.6911C57.4154 21.8586 57.6437 22.4064 57.4208 22.8663L55.2288 27.3938C55.0433 27.7772 55.1349 28.2371 55.4529 28.52L58.8555 31.5483H15.3589C15.8477 22.5948 23.2748 15.3325 32.5 15.3325H32.5063C40.5564 15.3325 47.6163 21.0468 49.2921 28.9192C49.3848 29.3558 49.7771 29.6732 50.2227 29.6732C50.2899 29.6732 50.356 29.6668 50.422 29.6516C50.9349 29.5425 51.2637 29.0358 51.1545 28.523C51.1545 28.5217 51.1545 28.5217 51.1545 28.5203C49.3149 19.8849 41.6334 13.4281 32.5001 13.4281C22.3194 13.4281 13.9459 21.4548 13.4513 31.5481H6.14491L9.54738 28.52Z" fill="#FF5C00"/>
<path d="M64.0479 41.0696C63.5219 41.0696 63.0957 41.4958 63.0957 42.0218C63.0957 42.5469 62.6686 42.9739 62.1436 42.9739H2.85645C2.33137 42.9739 1.9043 42.5469 1.9043 42.0218C1.9043 41.4958 1.47799 41.0696 0.952148 41.0696C0.426309 41.0696 0 41.4958 0 42.0218C0 43.5968 1.28134 44.8782 2.85645 44.8782H10.1762L11.5296 46.2317L11.2621 50.8269C11.1667 52.4681 12.5247 53.8339 14.1734 53.7382L18.4768 53.4876L19.892 57.5592C20.4331 59.1159 22.2131 59.8527 23.6958 59.1348L27.5757 57.2564L30.4416 60.4766C31.5372 61.7076 33.4636 61.7068 34.5587 60.4766L37.4244 57.2564L41.3042 59.1348C42.7871 59.8529 44.5673 59.1155 45.108 57.5595L46.5232 53.4877L50.8266 53.7383C52.4801 53.8344 53.833 52.4636 53.7379 50.827L53.4704 46.2318L54.8239 44.8784H62.1436C63.7185 44.8784 65 43.5969 65 42.0219C65 41.4958 64.5738 41.0696 64.0479 41.0696ZM51.5445 45.9158L51.8369 50.9376C51.8666 51.445 51.4495 51.8666 50.9374 51.8372L45.9155 51.5448C45.4907 51.5198 45.1007 51.7805 44.9608 52.1826L43.3092 56.9342C43.1415 57.4161 42.5934 57.6435 42.1338 57.4208L37.6062 55.2288C37.2228 55.0434 36.7632 55.1349 36.4801 55.4529L33.1359 59.2107C32.7968 59.5916 32.2034 59.5922 31.8638 59.2107L28.5196 55.4529C28.2365 55.1349 27.7767 55.0436 27.3934 55.2288L22.8659 57.4209C22.4042 57.6443 21.8574 57.414 21.6907 56.9341L20.039 52.1826C19.8993 51.7805 19.51 51.5189 19.0844 51.5448L14.0626 51.8372C13.5489 51.8653 13.1336 51.4445 13.1631 50.9376L13.4555 45.9158C13.4714 45.6445 13.3704 45.3793 13.1782 45.1872L12.8692 44.8782H44.382C41.1957 47.9438 36.9684 49.668 32.4999 49.668C28.5427 49.668 24.8217 48.3529 21.7393 45.8672C21.3354 45.5391 20.7364 45.5958 20.4 46.0094C20.0712 46.4182 20.1346 47.0185 20.5434 47.3487C20.5447 47.3487 20.5447 47.35 20.5447 47.35C23.8734 50.0365 28.0523 51.5725 32.4973 51.5725L32.4999 51.5661L32.5024 51.5725C38.12 51.5725 43.3748 49.1129 46.9975 44.8784H52.1305L51.8215 45.1874C51.6296 45.3793 51.5287 45.6445 51.5445 45.9158Z" fill="#FF5C00"/>
<path d="M5.56761 36.3091H6.26624C6.7922 36.3091 7.21838 35.8831 7.21838 35.357C7.21838 34.8311 6.79233 34.4051 6.26624 34.4051H5.56761C3.46781 34.4051 1.7594 36.1134 1.7594 38.213C1.7594 40.313 3.46781 42.0213 5.56761 42.0213C6.58476 42.0213 7.54084 41.6252 8.26016 40.9058C8.97948 40.1865 9.3757 39.2304 9.3757 38.213C9.3757 37.6873 8.94977 37.2611 8.42368 37.2611H6.7743C6.24846 37.2611 5.82215 37.6872 5.82215 38.213C5.82215 38.7391 6.24833 39.1652 6.7743 39.1652H7.21749C7.13523 39.3076 7.03354 39.4399 6.91408 39.5595C6.55416 39.9192 6.07606 40.1172 5.56761 40.1172C4.51758 40.1172 3.66357 39.2629 3.66357 38.213C3.66357 37.1634 4.51758 36.3091 5.56761 36.3091Z" fill="#FF5C00"/>
<path d="M11.0868 34.4051C10.5611 34.4051 10.1348 34.8311 10.1348 35.357V38.8034C10.1348 40.5779 11.5866 42.0213 13.3717 42.0213C15.1565 42.0213 16.6085 40.5779 16.6085 38.8034V35.357C16.6085 34.8313 16.1823 34.4051 15.6566 34.4051C15.1307 34.4051 14.7044 34.8311 14.7044 35.357V38.8034C14.7044 39.5278 14.1065 40.1172 13.3716 40.1172C12.6366 40.1172 12.0387 39.5278 12.0387 38.8034V35.357C12.0389 34.8311 11.6125 34.4051 11.0868 34.4051Z" fill="#FF5C00"/>
<path d="M20.1646 34.4051C19.7679 34.4051 19.4126 34.6511 19.2733 35.0226L17.1312 40.7348C16.9465 41.2273 17.1962 41.776 17.6883 41.9605C18.1807 42.1447 18.7293 41.8957 18.9141 41.4034L19.0394 41.0691H21.2899L21.4154 41.4034C21.6008 41.8984 22.1519 42.1443 22.641 41.9605C23.133 41.776 23.3825 41.2273 23.1979 40.7348L21.056 35.0226C20.9166 34.6511 20.5614 34.4051 20.1646 34.4051ZM19.7532 39.1652L20.1645 38.0683L20.5757 39.1652H19.7532Z" fill="#FF5C00"/>
<path d="M29.9872 37.2613C29.9872 35.6866 28.7131 34.4052 27.1471 34.4052H25.2904C24.7647 34.4052 24.3384 34.8313 24.3384 35.3571V41.0694C24.3384 41.5953 24.7646 42.0214 25.2904 42.0214C25.8161 42.0214 26.2425 41.5953 26.2425 41.0694V40.1173H26.7502L28.3591 41.7397C28.5451 41.9274 28.7901 42.0214 29.0351 42.0214C29.2774 42.0214 29.5197 41.9294 29.7054 41.7454C30.0787 41.3752 30.0812 40.7723 29.7112 40.3991L28.8582 39.5389C29.5435 39.0169 29.9872 38.1903 29.9872 37.2613ZM27.1471 38.213H26.2425V36.3091H27.1471C27.663 36.3091 28.083 36.7361 28.083 37.2612C28.083 37.7861 27.6632 38.213 27.1471 38.213Z" fill="#FF5C00"/>
<path d="M34.0322 34.4051C33.6355 34.4051 33.2802 34.6511 33.1409 35.0226L30.9988 40.7348C30.814 41.2273 31.0637 41.776 31.5559 41.9604C32.0483 42.1447 32.5969 41.8957 32.7818 41.4034L32.9071 41.0691H35.1577L35.2831 41.4034C35.4263 41.7856 35.7891 42.0213 36.1744 42.0213C36.2855 42.0213 36.3985 42.0018 36.5086 41.9604C37.0007 41.776 37.2501 41.2273 37.0655 40.7348L34.9236 35.0226C34.7842 34.6511 34.429 34.4051 34.0322 34.4051ZM33.6208 39.1652L34.0321 38.0683L34.4433 39.1652H33.6208Z" fill="#FF5C00"/>
<path d="M42.2678 35.357V38.1611L39.7986 34.7942C39.5551 34.4625 39.126 34.3244 38.7347 34.4526C38.3433 34.5805 38.0789 34.9458 38.0789 35.3572V41.0694C38.0789 41.5953 38.505 42.0214 39.0309 42.0214C39.5566 42.0214 39.983 41.5953 39.983 41.0694V38.2654L42.4521 41.6323C42.9919 42.3685 44.1721 41.9936 44.1721 41.0691V35.3569C44.172 34.8311 43.7458 34.405 43.22 34.405C42.694 34.4051 42.2678 34.8311 42.2678 35.357Z" fill="#FF5C00"/>
<path d="M47.8246 42.0213C48.3504 42.0213 48.7766 41.5952 48.7766 41.0692V36.3091H49.9826C50.5084 36.3091 50.9347 35.8831 50.9347 35.357C50.9347 34.8311 50.5085 34.4051 49.9826 34.4051H45.6667C45.1409 34.4051 44.7146 34.8311 44.7146 35.357C44.7146 35.8831 45.1408 36.3091 45.6667 36.3091H46.8727V41.0692C46.8727 41.5952 47.2989 42.0213 47.8246 42.0213Z" fill="#FF5C00"/>
<path d="M55.3652 36.3091C55.8911 36.3091 56.3172 35.8831 56.3172 35.357C56.3172 34.8311 55.8912 34.4051 55.3652 34.4051H52.4457C51.92 34.4051 51.4937 34.8311 51.4937 35.357V41.0692C51.4937 41.5952 51.9198 42.0213 52.4457 42.0213H55.3652C55.8911 42.0213 56.3172 41.5952 56.3172 41.0692C56.3172 40.5433 55.8911 40.1172 55.3652 40.1172H53.3977V39.1652H54.6036C55.1295 39.1652 55.5555 38.7391 55.5555 38.213C55.5555 37.6872 55.1295 37.2611 54.6036 37.2611H53.3977V36.3091H55.3652Z" fill="#FF5C00"/>
<path d="M61.2729 36.3091C61.7988 36.3091 62.2249 35.8831 62.2249 35.357C62.2249 34.8311 61.7989 34.4051 61.2729 34.4051H58.3534C57.8277 34.4051 57.4014 34.8311 57.4014 35.357V41.0692C57.4014 41.5952 57.8275 42.0213 58.3534 42.0213H61.2729C61.7988 42.0213 62.2249 41.5952 62.2249 41.0692C62.2249 40.5433 61.7988 40.1172 61.2729 40.1172H59.3054V39.1652H60.5113C61.0372 39.1652 61.4632 38.7391 61.4632 38.213C61.4632 37.6872 61.0372 37.2611 60.5113 37.2611H59.3054V36.3091H61.2729Z" fill="#FF5C00"/>
</svg>
