<?xml version="1.0" encoding="utf-8"?><svg viewBox="0 0 90 90" xmlns="http://www.w3.org/2000/svg" xmlns:xlink="http://www.w3.org/1999/xlink"><style>:root>svg{display:none}:root>svg:target{display:block}</style><svg fill="none" viewBox="0 0 30 30" id="clock" xmlns="http://www.w3.org/2000/svg"><g clip-path="url(#aa)"><path d="M30 15c0-.182-.003-.364-.01-.544C29.704 6.424 23.102 0 15 0S.296 6.424.01 14.456c-.007.18-.01.362-.01.544 0 8.284 7.705 14.456 15 14.456 7.427 0 15-6.172 15-14.456Z" fill="#FF5876"/><path d="M15 28.911C6.898 28.911.298 22.488.01 14.456c-.006.18-.01.362-.01.544 0 8.284 6.716 15 15 15 8.284 0 15-6.716 15-15 0-.182-.004-.364-.01-.544C29.702 22.488 23.101 28.91 15 28.91Z" fill="#E6485D"/><path d="M27.505 14.456C27.22 7.796 21.73 2.483 15 2.483S2.78 7.795 2.495 14.456c-.008.18 0 12.265 12.505 12.265s12.513-12.085 12.505-12.265Z" fill="#E4EEF9"/><path d="M15 26.428c-6.73 0-12.22-5.312-12.504-11.972-.008.18-.013.362-.013.544 0 6.913 5.604 12.517 12.517 12.517 6.913 0 12.517-5.604 12.517-12.517 0-.182-.005-.364-.013-.544C27.22 21.116 21.73 26.428 15 26.428Z" fill="#D5E0F2"/><path d="M19.547 10.608a.907.907 0 0 0-1.284.01l-2.128 2.158.213 1.027.995.331 2.212-2.243a.907.907 0 0 0-.008-1.283ZM13.716 12.858 8.887 8.556A.907.907 0 1 0 7.68 9.91l4.924 4.388 1.026-.342.086-1.098Z" fill="#405B6C"/><path d="M21.424 20.85a.451.451 0 0 1-.291-.107l-5.747-4.826a.454.454 0 1 1 .584-.695l5.746 4.827a.454.454 0 0 1-.292.8Z" fill="#86DCFF"/><path d="m12.604 14.298.847.755 1.088-.37-.059-1.144-.764-.68c-.532.319-.934.83-1.112 1.439ZM16.135 12.776l-.72.73v1.434h1.134l.794-.806a2.505 2.505 0 0 0-1.208-1.358Z" fill="#2D4456"/><path d="M16.452 14.456a1.551 1.551 0 0 0-2.904 0c-.064.169-.004 1.55 1.452 1.55s1.516-1.381 1.452-1.55Z" fill="#FF5876"/><path d="M15 15.462a1.55 1.55 0 0 1-1.452-1.006 1.55 1.55 0 1 0 2.904 0A1.55 1.55 0 0 1 15 15.462Z" fill="#E6485D"/><path d="M15.454 5.483V4.075a.455.455 0 0 0-.909 0v1.408a.455.455 0 0 0 .91 0ZM14.545 24.517v1.408a.455.455 0 1 0 .91 0v-1.408a.455.455 0 0 0-.91 0ZM25.925 15.454a.455.455 0 0 0 0-.909h-1.408a.455.455 0 0 0 0 .91h1.408ZM4.075 14.546a.454.454 0 1 0 0 .909h1.408a.454.454 0 1 0 0-.91H4.075Z" fill="#405B6C"/></g><defs><clipPath id="aa"><path fill="#fff" d="M0 0h30v30H0z"/></clipPath></defs></svg><svg fill="none" viewBox="0 0 65 65" id="guarantee" xmlns="http://www.w3.org/2000/svg"><path d="M23.885 27.803h-.317v-4.76c0-.848-1.029-1.27-1.625-.673l-1.27 1.27a.952.952 0 0 0 .99 1.57v2.593h-.316a.952.952 0 1 0 0 1.904h2.538a.952.952 0 1 0 0-1.904ZM28.78 22.09a2.86 2.86 0 0 0-2.856 2.857v1.904a2.86 2.86 0 0 0 2.856 2.856 2.86 2.86 0 0 0 2.856-2.856v-1.904a2.86 2.86 0 0 0-2.856-2.856Zm.952 4.761a.953.953 0 0 1-1.904 0v-1.904a.953.953 0 0 1 1.904 0v1.904ZM35.582 22.09a2.86 2.86 0 0 0-2.856 2.857v1.904a2.86 2.86 0 0 0 2.856 2.856 2.86 2.86 0 0 0 2.856-2.856v-1.904a2.86 2.86 0 0 0-2.856-2.856Zm.952 4.761a.953.953 0 0 1-1.904 0v-1.904a.953.953 0 0 1 1.904 0v1.904ZM40.48 23.994a.952.952 0 1 0 0-1.904.952.952 0 0 0 0 1.904ZM44.116 22.21a.952.952 0 0 0-1.295.37l-3.173 5.711a.952.952 0 0 0 1.664.925l3.174-5.712a.952.952 0 0 0-.37-1.294ZM43.653 27.802a.952.952 0 1 0 0 1.904.952.952 0 0 0 0-1.904Z" fill="#FF5C00"/><path d="M.952 35.357a.952.952 0 0 0 .952-.952c0-.526.427-.953.952-.953h59.288c.525 0 .952.428.952.953a.952.952 0 1 0 1.904 0 2.86 2.86 0 0 0-2.856-2.857h-.915a2.757 2.757 0 0 0-.753-1.106l-3.22-2.866 1.879-3.88a2.757 2.757 0 0 0-1.576-3.804l-4.072-1.415.251-4.303a2.757 2.757 0 0 0-2.911-2.912l-4.304.251-1.415-4.072a2.757 2.757 0 0 0-3.804-1.575l-3.88 1.878-2.865-3.22a2.756 2.756 0 0 0-4.117 0l-2.866 3.22-3.88-1.878a2.757 2.757 0 0 0-3.804 1.575l-1.415 4.072-4.304-.25a2.757 2.757 0 0 0-2.91 2.91l.25 4.304-4.072 1.415a2.757 2.757 0 0 0-1.575 3.804l1.878 3.88-3.22 2.866a2.757 2.757 0 0 0-.753 1.106h-.915A2.86 2.86 0 0 0 0 34.405c0 .526.426.952.952.952Zm8.595-6.837a.952.952 0 0 0 .224-1.126L7.58 22.866a.85.85 0 0 1 .487-1.175l4.752-1.652a.952.952 0 0 0 .638-.954l-.293-5.022a.85.85 0 0 1 .9-.9l5.021.293a.952.952 0 0 0 .955-.638l1.652-4.752a.85.85 0 0 1 1.175-.486l4.528 2.192a.953.953 0 0 0 1.126-.224l3.344-3.758a.85.85 0 0 1 1.272 0l3.344 3.758a.952.952 0 0 0 1.126.224l4.528-2.192a.85.85 0 0 1 1.175.486l1.652 4.752c.14.402.53.663.955.638l5.022-.293a.85.85 0 0 1 .9.9l-.293 5.022a.952.952 0 0 0 .638.954l4.751 1.652a.85.85 0 0 1 .487 1.175l-2.192 4.528a.952.952 0 0 0 .224 1.126l3.402 3.028H15.36c.489-8.953 7.916-16.215 17.141-16.215h.006c8.05 0 15.11 5.714 16.786 13.586a.957.957 0 0 0 1.13.733.953.953 0 0 0 .733-1.129v-.003c-1.84-8.635-9.522-15.092-18.655-15.092-10.18 0-18.554 8.027-19.049 18.12H6.145l3.402-3.028ZM64.048 41.07a.952.952 0 0 0-.952.952.953.953 0 0 1-.952.952H2.856a.953.953 0 0 1-.952-.952.952.952 0 1 0-1.904 0 2.86 2.86 0 0 0 2.856 2.856h7.32l1.354 1.354-.268 4.595a2.757 2.757 0 0 0 2.911 2.911l4.304-.25 1.415 4.071a2.757 2.757 0 0 0 3.804 1.576l3.88-1.879 2.866 3.22a2.757 2.757 0 0 0 4.117 0l2.865-3.22 3.88 1.879a2.757 2.757 0 0 0 3.804-1.575l1.415-4.072 4.304.25a2.757 2.757 0 0 0 2.91-2.911l-.267-4.595 1.354-1.354h7.32A2.86 2.86 0 0 0 65 42.022a.952.952 0 0 0-.952-.952Zm-12.504 4.846.293 5.022a.85.85 0 0 1-.9.9l-5.021-.293a.952.952 0 0 0-.955.638l-1.652 4.751a.85.85 0 0 1-1.175.487l-4.528-2.192a.952.952 0 0 0-1.126.224l-3.344 3.758a.85.85 0 0 1-1.272 0l-3.344-3.758a.953.953 0 0 0-1.127-.224l-4.527 2.192a.85.85 0 0 1-1.175-.487l-1.652-4.751a.95.95 0 0 0-.955-.638l-5.021.292a.85.85 0 0 1-.9-.9l.293-5.021a.952.952 0 0 0-.278-.729l-.309-.309h31.513a17.088 17.088 0 0 1-11.882 4.79 16.968 16.968 0 0 1-10.76-3.8.952.952 0 1 0-1.195 1.482 18.982 18.982 0 0 0 11.952 4.222l.003-.006.002.006c5.618 0 10.873-2.46 14.495-6.694h5.133l-.309.31a.952.952 0 0 0-.276.728Z" fill="#FF5C00"/><path d="M5.568 36.31h.698a.952.952 0 1 0 0-1.905h-.698a3.812 3.812 0 0 0-3.809 3.808c0 2.1 1.709 3.808 3.809 3.808a3.782 3.782 0 0 0 2.692-1.115 3.783 3.783 0 0 0 1.116-2.693.952.952 0 0 0-.952-.952h-1.65a.952.952 0 1 0 0 1.904h.443a1.91 1.91 0 0 1-1.65.952 1.906 1.906 0 0 1-1.903-1.904c0-1.05.854-1.904 1.904-1.904ZM11.087 34.405a.952.952 0 0 0-.952.952v3.446c0 1.775 1.452 3.218 3.237 3.218 1.784 0 3.236-1.443 3.236-3.218v-3.446a.952.952 0 0 0-1.904 0v3.446c0 .725-.598 1.314-1.332 1.314-.735 0-1.333-.59-1.333-1.314v-3.446a.952.952 0 0 0-.952-.952ZM20.165 34.405a.952.952 0 0 0-.892.618l-2.142 5.712a.952.952 0 1 0 1.783.668l.125-.334h2.25l.126.334a.952.952 0 1 0 1.783-.668l-2.142-5.712a.952.952 0 0 0-.891-.618Zm-.412 4.76.412-1.097.41 1.097h-.822ZM29.987 37.261a2.851 2.851 0 0 0-2.84-2.856H25.29a.952.952 0 0 0-.952.952v5.712a.952.952 0 1 0 1.904 0v-.952h.508l1.61 1.623a.949.949 0 0 0 1.345.005.952.952 0 0 0 .006-1.346l-.853-.86a2.859 2.859 0 0 0 1.13-2.278Zm-2.84.952h-.904v-1.904h.904c.516 0 .936.427.936.952 0 .525-.42.952-.936.952ZM34.032 34.405a.952.952 0 0 0-.891.618l-2.142 5.712a.952.952 0 1 0 1.783.668l.125-.334h2.25l.126.334a.952.952 0 1 0 1.782-.668l-2.141-5.712a.952.952 0 0 0-.892-.618Zm-.411 4.76.411-1.097.411 1.097h-.822ZM42.268 35.357v2.804l-2.47-3.367a.952.952 0 0 0-1.72.563v5.712a.952.952 0 1 0 1.905 0v-2.804l2.47 3.367c.539.736 1.72.362 1.72-.563v-5.712a.952.952 0 0 0-1.905 0ZM47.825 42.021a.952.952 0 0 0 .952-.952v-4.76h1.206a.952.952 0 1 0 0-1.904h-4.316a.952.952 0 1 0 0 1.904h1.206v4.76c0 .526.426.952.952.952ZM55.365 36.31a.952.952 0 1 0 0-1.905h-2.92a.952.952 0 0 0-.951.952v5.712c0 .526.426.952.952.952h2.92a.952.952 0 1 0 0-1.904h-1.968v-.952h1.206a.952.952 0 1 0 0-1.904h-1.206v-.952h1.967ZM61.273 36.31a.952.952 0 1 0 0-1.905h-2.92a.952.952 0 0 0-.952.952v5.712c0 .526.426.952.952.952h2.92a.952.952 0 1 0 0-1.904h-1.968v-.952h1.206a.952.952 0 1 0 0-1.904h-1.206v-.952h1.968Z" fill="#FF5C00"/></svg><svg fill="none" viewBox="0 0 29 29" id="instagram" xmlns="http://www.w3.org/2000/svg"><g clip-path="url(#ca)"><path d="M1.812 1.973C-.466 4.34 0 6.855 0 14.494c0 6.344-1.107 12.703 4.686 14.2 1.809.466 17.836.466 19.643-.002 2.411-.622 4.374-2.579 4.642-5.99.037-.476.037-15.932-.001-16.417C28.685 2.65 26.448.557 23.5.133 22.826.035 22.69.006 19.226 0 6.932.006 4.238-.541 1.812 1.973Z" fill="url(#cb)"/><path d="M14.498 3.793c-4.388 0-8.554-.39-10.146 3.694-.657 1.687-.561 3.877-.561 7.014 0 2.753-.089 5.34.561 7.013 1.588 4.087 5.788 3.695 10.143 3.695 4.202 0 8.533.438 10.144-3.695.659-1.703.562-3.861.562-7.013 0-4.183.23-6.884-1.798-8.911-2.054-2.054-4.832-1.797-8.91-1.797h.005Zm-.96 1.93c9.152-.015 10.317-1.032 9.674 13.102-.228 4.998-4.035 4.45-8.713 4.45-8.531 0-8.776-.244-8.776-8.779 0-8.633.676-8.768 7.815-8.776v.003ZM20.213 7.5a1.285 1.285 0 1 0 0 2.57 1.285 1.285 0 0 0 0-2.57Zm-5.715 1.502a5.499 5.499 0 0 0 0 10.997 5.497 5.497 0 0 0 5.496-5.498c0-3.036-2.46-5.499-5.496-5.499Zm0 1.93c4.718 0 4.724 7.139 0 7.139-4.718 0-4.725-7.14 0-7.14Z" fill="#fff"/></g><defs><linearGradient id="cb" x1="1.868" y1="27.148" x2="28.82" y2="3.821" gradientUnits="userSpaceOnUse"><stop stop-color="#FD5"/><stop offset=".5" stop-color="#FF543E"/><stop offset="1" stop-color="#C837AB"/></linearGradient><clipPath id="ca"><path fill="#fff" d="M0 0h29v29H0z"/></clipPath></defs></svg><svg fill="none" viewBox="0 0 60 60" id="interactive" xmlns="http://www.w3.org/2000/svg"><g clip-path="url(#da)" fill="#FF5C00"><path d="M11.613 5.806a5.812 5.812 0 0 0-5.807 5.807 5.812 5.812 0 0 0 5.807 5.806 5.812 5.812 0 0 0 5.806-5.806 5.812 5.812 0 0 0-5.806-5.807Zm0 9.678a3.875 3.875 0 0 1-3.871-3.871 3.875 3.875 0 0 1 3.87-3.871 3.875 3.875 0 0 1 3.872 3.87 3.875 3.875 0 0 1-3.871 3.872Z"/><path d="M57.097 30.968a2.9 2.9 0 0 0-2.725 1.935h-2.114v-7.742h-1.935v7.742h-1.936v-3.87h-1.935v3.87h-1.936v-5.806h-1.935v5.806h-.588l-9.074-8.427c.608-.927.952-2.03.952-3.186 0-1.586-.64-3.024-1.675-4.073l5.974-6.572h2.523c.488 4.883 4.62 8.71 9.629 8.71 5.336 0 9.677-4.341 9.677-9.678C60 4.341 55.66 0 50.323 0c-5.01 0-9.142 3.827-9.629 8.71h-3.38l-6.7 7.371a5.769 5.769 0 0 0-2.55-.597c-.028 0-.057.004-.084.004l-1.074-4.843h-3.68V8.98l-2.595-.865c-.053-.135-.109-.27-.168-.404l1.224-2.447-3.724-3.724-2.447 1.224a8.412 8.412 0 0 0-.405-.168L14.246 0H8.98l-.864 2.595c-.136.053-.27.109-.405.168L5.264 1.54 1.54 5.264 2.764 7.71a8.24 8.24 0 0 0-.168.405L0 8.979v5.266l2.595.865c.053.136.109.27.168.405l-1.224 2.447 3.724 3.724 2.447-1.224c.134.06.27.116.403.17l.866 2.594h5.266l.865-2.595c.135-.053.27-.109.404-.169l2.447 1.224 3.724-3.724-1.224-2.447c.06-.135.116-.27.168-.405l2.597-.864v-1.665h2.126l.723 3.261c-2.223.815-3.817 2.946-3.817 5.448 0 1.598.661 3.074 1.76 4.146l-5.17 7.467h-1.429v-5.806h-1.935v5.806h-1.936v-7.742h-1.935v7.742H9.677v-3.87H7.742v3.87H5.628a2.9 2.9 0 0 0-2.725-1.935A2.907 2.907 0 0 0 0 33.87c0 1.6 1.303 2.903 2.903 2.903a2.9 2.9 0 0 0 2.725-1.935h14.234l5.3-7.655V47.01a1.348 1.348 0 0 1-.363-.702l-1.734-9.535h-2.568a3.081 3.081 0 0 0-3.078 3.078v.618c0 .17.015.34.042.506l1.74 10.446c.136.813.48 1.584.996 2.227l2.393 2.99c.41.515.636 1.16.636 1.815V60H38.71v-1.546c0-.657.225-1.3.636-1.814l2.174-2.718a4.849 4.849 0 0 0 1.06-3.021V40.645c0-1.6-1.302-2.903-2.903-2.903-.382 0-.745.078-1.08.213a2.897 2.897 0 0 0-2.79-2.149c-.341 0-.665.07-.968.179v-.179c0-1.6-1.303-2.903-2.903-2.903-.341 0-.664.07-.968.178v-6.774c.22-.127.425-.268.624-.42l9.64 8.952h13.14a2.9 2.9 0 0 0 2.725 1.935c1.6 0 2.903-1.303 2.903-2.903s-1.303-2.903-2.903-2.903ZM42.58 9.678c0-1.064.216-2.08.605-3.003l1.7.982c-.235.63-.37 1.31-.37 2.02 0 .712.135 1.391.37 2.021l-1.7.981a7.703 7.703 0 0 1-.605-3.002Zm7.742-3.872a3.875 3.875 0 0 1 3.87 3.871 3.875 3.875 0 0 1-3.87 3.871 3.875 3.875 0 0 1-3.871-3.87 3.875 3.875 0 0 1 3.87-3.872Zm7.742 3.871a7.701 7.701 0 0 1-.606 3.002l-1.7-.981c.235-.63.37-1.31.37-2.02a5.77 5.77 0 0 0-.37-2.021l1.7-.982c.39.924.605 1.939.605 3.002Zm-13.9 4.674 1.686-.974a5.804 5.804 0 0 0 3.504 2.02v1.956a7.737 7.737 0 0 1-5.19-3.002Zm7.125 3.002v-1.956a5.804 5.804 0 0 0 3.505-2.02l1.685.974a7.737 7.737 0 0 1-5.19 3.002Zm5.19-12.349-1.685.974a5.814 5.814 0 0 0-3.505-2.02V2.002a7.737 7.737 0 0 1 5.19 3.002Zm-7.125-3.002v1.956c-1.4.236-2.634.97-3.504 2.02l-1.686-.974a7.737 7.737 0 0 1 5.19-3.002ZM21.29 12.851l-2.177.725-.152.462c-.115.35-.262.704-.44 1.052l-.219.434 1.028 2.057-1.75 1.75-2.056-1.027-.434.219a7.794 7.794 0 0 1-1.053.44l-.462.15-.724 2.177h-2.477l-.725-2.177-.462-.152a7.725 7.725 0 0 1-1.053-.44l-.434-.218-2.055 1.028-1.75-1.751 1.027-2.056-.219-.434a7.916 7.916 0 0 1-.44-1.052l-.15-.462-2.178-.726v-2.476l2.178-.725.152-.462c.115-.35.262-.704.439-1.052l.22-.435-1.03-2.055 1.75-1.75 2.057 1.027.435-.219a7.92 7.92 0 0 1 1.052-.44l.462-.151.725-2.177h2.476l.726 2.178.462.152c.35.115.704.262 1.052.439l.434.22 2.057-1.028 1.75 1.75-1.027 2.057.22.435c.176.35.323.704.44 1.052l.15.461 2.178.726v2.473h-.003ZM2.903 34.838a.97.97 0 0 1-.968-.968.97.97 0 0 1 .968-.968.97.97 0 0 1 .968.968.97.97 0 0 1-.968.968Zm25.162-17.42a3.875 3.875 0 0 1 3.87 3.871c0 .977-.369 1.894-.998 2.592a2.897 2.897 0 0 0-2.873-2.592 2.896 2.896 0 0 0-2.872 2.596 3.863 3.863 0 0 1-.998-2.596 3.875 3.875 0 0 1 3.87-3.87Zm3.87 17.42a.97.97 0 0 1 .968.967V47.42h1.936v-8.71a.97.97 0 0 1 .967-.967.97.97 0 0 1 .968.968v8.71h1.936v-6.775a.97.97 0 0 1 .967-.968.97.97 0 0 1 .968.968V50.9c0 .657-.225 1.3-.636 1.815l-2.174 2.718a4.85 4.85 0 0 0-1.044 2.633H25.145a4.865 4.865 0 0 0-1.044-2.633l-2.393-2.991a2.906 2.906 0 0 1-.598-1.336l-1.74-10.448a1.203 1.203 0 0 1-.015-.188v-.618c0-.63.512-1.142 1.142-1.142h.953l1.445 7.946a3.287 3.287 0 0 0 3.234 2.699h.968V24.194a.97.97 0 0 1 .967-.968.97.97 0 0 1 .968.968v23.225h1.936V35.806a.97.97 0 0 1 .968-.967Zm25.162 0a.97.97 0 0 1-.968-.968.97.97 0 0 1 .968-.968.97.97 0 0 1 .968.968.97.97 0 0 1-.968.968Z"/></g><defs><clipPath id="da"><path fill="#fff" d="M0 0h60v60H0z"/></clipPath></defs></svg><svg fill="none" viewBox="0 0 90 90" id="logo" xmlns="http://www.w3.org/2000/svg"><g clip-path="url(#ea)"><path d="M90 45c0 7.965-2.07 15.448-5.7 21.938-1.532 2.736-9.031-12.42-11.08-10.074a45.175 45.175 0 0 1-12.544 10.032 44.792 44.792 0 0 1-21.369 5.388c-7.734 0-9.319 15.765-15.675 12.328A45.175 45.175 0 0 1 5.701 66.938 44.806 44.806 0 0 1 0 45c0-7.965 2.07-15.448 5.7-21.938 5.072-9.066 13.19-16.196 22.968-20.005A44.862 44.862 0 0 1 45 0c5.76 0 11.27 1.083 16.332 3.057 9.779 3.809 17.896 10.939 22.967 20.005A44.806 44.806 0 0 1 90 45Z" fill="#DC4356"/><path d="M84.3 12.234v54.703C76.601 80.698 61.886 90 45 90H14.878a9.176 9.176 0 0 1-9.177-9.177V12.234a9.177 9.177 0 0 1 9.177-9.177h60.244c5.07 0 9.177 4.11 9.177 9.177Z" fill="#D2D9F8"/><path d="M19.18 90h-4.303A9.176 9.176 0 0 1 5.7 80.824V12.236a9.177 9.177 0 0 1 9.176-9.178h4.304a9.177 9.177 0 0 0-9.178 9.178v68.588c0 5.067 4.109 9.176 9.178 9.176Z" fill="#C3CCEC"/><path d="M78.912 12.235v13.682H11.088V12.235c0-2.09 1.7-3.79 3.79-3.79h60.245c2.09 0 3.788 1.7 3.788 3.79ZM78.912 31.632V74.58a45.174 45.174 0 0 1-12.544 10.032h-51.49c-2.092 0-3.79-1.7-3.79-3.788V31.632h67.824Z" fill="#E8ECFD"/><path d="M45 82.857c13.482 0 24.41-10.929 24.41-24.41 0-13.482-10.928-24.411-24.41-24.411s-24.41 10.929-24.41 24.41c0 13.482 10.928 24.411 24.41 24.411Z" fill="#D2D9F8"/><path d="M64.029 58.447c0 10.509-8.519 19.03-19.029 19.03a18.97 18.97 0 0 1-14.01-6.155 19.029 19.029 0 0 0 4.172-7.252c.55-1.776.845-3.664.845-5.623 0-2.212-.377-4.335-1.07-6.31a19.026 19.026 0 0 0-3.947-6.567A18.97 18.97 0 0 1 45 39.417c10.51 0 19.029 8.52 19.029 19.03Z" fill="#50405A"/><path d="M56.877 58.447c0 6.558-5.317 11.875-11.877 11.875a11.868 11.868 0 0 1-10.063-5.567 19 19 0 0 0 1.07-6.308c0-2.212-.377-4.335-1.07-6.31A11.867 11.867 0 0 1 45 46.571c6.56 0 11.877 5.317 11.877 11.876Z" fill="#362A40"/><path d="M64.029 58.447c0 10.509-8.519 19.03-19.029 19.03a18.97 18.97 0 0 1-14.01-6.155 19.029 19.029 0 0 0 4.172-7.252c6.866.256 14.045-8.78 21.126-9.329 2.6-.203 5.188.74 7.74 3.706Z" fill="#6A78D7"/><path d="M59.73 59.973a1.526 1.526 0 0 1-1.527-1.526c0-7.28-5.923-13.203-13.203-13.203a1.526 1.526 0 0 1 0-3.053c8.963 0 16.255 7.292 16.255 16.256 0 .842-.683 1.526-1.526 1.526Z" fill="#E8ECFD"/><path d="M56.877 58.447c0 6.558-5.317 11.875-11.877 11.875a11.868 11.868 0 0 1-10.063-5.567c.079-.226.154-.456.224-.685 6.867.257 14.046-8.78 21.127-9.329.382 1.165.589 2.412.589 3.706Z" fill="#545EC0"/><path d="M18.848 23.106a5.86 5.86 0 1 0 0-11.719 5.86 5.86 0 0 0 0 11.719ZM31.421 23.106a5.86 5.86 0 1 0 0-11.719 5.86 5.86 0 0 0 0 11.719Z" fill="#D2D9F8"/><path d="M33.276 22.808a5.922 5.922 0 0 1-1.855.298 5.86 5.86 0 1 1 1.855-11.42 5.863 5.863 0 0 0 0 11.122ZM20.703 22.808a5.922 5.922 0 0 1-1.855.298 5.86 5.86 0 1 1 1.855-11.42 5.863 5.863 0 0 0 0 11.122Z" fill="#C3CCEC"/><path d="M72.263 16.342h1.328a1.814 1.814 0 0 0 1.814-1.814V13.2a1.814 1.814 0 0 0-1.814-1.813h-1.328A1.814 1.814 0 0 0 70.45 13.2v1.328c0 1.002.813 1.814 1.814 1.814ZM72.263 23.607h1.328a1.814 1.814 0 0 0 1.814-1.814v-1.328a1.814 1.814 0 0 0-1.814-1.814h-1.328a1.814 1.814 0 0 0-1.814 1.814v1.328c0 1.002.813 1.814 1.814 1.814ZM65.025 16.342h1.328a1.814 1.814 0 0 0 1.813-1.814V13.2a1.814 1.814 0 0 0-1.813-1.813h-1.328A1.814 1.814 0 0 0 63.21 13.2v1.328c0 1.002.812 1.814 1.814 1.814ZM65.025 23.607h1.328a1.814 1.814 0 0 0 1.813-1.814v-1.328a1.814 1.814 0 0 0-1.813-1.814h-1.328a1.814 1.814 0 0 0-1.814 1.814v1.328c0 1.002.812 1.814 1.814 1.814Z" fill="#6A78D7"/><path d="M57.786 16.342h1.328a1.814 1.814 0 0 0 1.814-1.814V13.2a1.814 1.814 0 0 0-1.814-1.813h-1.328a1.814 1.814 0 0 0-1.813 1.813v1.328c0 1.002.812 1.814 1.813 1.814Z" fill="#DC4356"/><path d="M57.786 23.607h1.328a1.814 1.814 0 0 0 1.814-1.814v-1.328a1.814 1.814 0 0 0-1.814-1.814h-1.328a1.814 1.814 0 0 0-1.813 1.814v1.328c0 1.002.812 1.814 1.813 1.814Z" fill="#6A78D7"/><path d="M44.93 66.661h-.395a2.063 2.063 0 0 1-2.064-2.063v-.396c0-.851-.654-1.584-1.505-1.624a1.582 1.582 0 0 0-1.658 1.58v.44c0 1.14-.924 2.063-2.064 2.063h-.395c-.852 0-1.585.655-1.625 1.506a1.582 1.582 0 0 0 1.58 1.658h.44c1.14 0 2.064.924 2.064 2.063v.396c0 .851.654 1.584 1.505 1.624a1.582 1.582 0 0 0 1.658-1.58v-.44c0-1.14.924-2.063 2.064-2.063h.44c.899 0 1.623-.75 1.58-1.658-.04-.851-.773-1.506-1.625-1.506Z" fill="#E8ECFD"/><path d="M50.896 23.607h-8.368a2.257 2.257 0 0 1-2.257-2.258v-7.705a2.257 2.257 0 0 1 2.257-2.257h8.368a2.257 2.257 0 0 1 2.257 2.257v7.705a2.257 2.257 0 0 1-2.257 2.258Z" fill="#77C378"/><path d="M49.637 14.903v5.188h-5.85v-5.188h5.85Z" fill="#5FA158"/></g><defs><clipPath id="ea"><path fill="#fff" d="M0 0h90v90H0z"/></clipPath></defs></svg><svg fill="none" viewBox="0 0 75 75" id="minutes" xmlns="http://www.w3.org/2000/svg"><g clip-path="url(#fa)" fill="#FF5C00"><path d="M37.5 0C16.822 0 0 16.823 0 37.5 0 58.178 16.822 75 37.5 75S75 58.178 75 37.5C75 16.823 58.178 0 37.5 0Zm0 72.272c-19.173 0-34.772-15.6-34.772-34.772 0-19.174 15.599-34.772 34.772-34.772 19.174 0 34.772 15.598 34.772 34.772 0 19.173-15.598 34.772-34.772 34.772Z"/><path d="M37.5 8.83C21.996 8.83 9.36 21.208 8.876 36.596c-.013.077-.045.146-.045.227 0 .048.021.089.027.136-.004.181-.027.358-.027.541 0 15.808 12.86 28.67 28.67 28.67 15.808 0 28.669-12.862 28.669-28.67 0-15.808-12.861-28.67-28.67-28.67Zm18.88 46.407-3.293-3.187a1.364 1.364 0 1 0-1.896 1.96l3.222 3.119a25.803 25.803 0 0 1-15.494 6.242v-4.162a1.364 1.364 0 1 0-2.728 0v4.167a25.798 25.798 0 0 1-15.574-6.22l2.605-2.692a1.364 1.364 0 1 0-1.959-1.897l-2.614 2.7c-4.235-4.49-6.882-10.476-7.056-17.08h4.82a1.363 1.363 0 1 0 0-2.728h-4.752a25.801 25.801 0 0 1 5.664-14.232l3.483 3.373a1.362 1.362 0 1 0 1.896-1.961l-3.562-3.45a25.849 25.849 0 0 1 17.05-7.565v4.056a1.363 1.363 0 1 0 2.727 0v-4.05a25.801 25.801 0 0 1 15.726 6.452l-3.107 3.21a1.364 1.364 0 1 0 1.96 1.896l3.091-3.194c3.808 4.148 6.284 9.522 6.75 15.465h-4.64a1.363 1.363 0 1 0 0 2.728h4.708c-.173 6.588-2.81 12.562-7.027 17.05Z"/><path d="M42.53 30.484a5.101 5.101 0 0 0-5.095 5.096v4.974a5.1 5.1 0 0 0 5.095 5.094 5.1 5.1 0 0 0 5.095-5.094V35.58a5.101 5.101 0 0 0-5.095-5.096Zm2.367 10.07a2.37 2.37 0 0 1-2.367 2.367 2.37 2.37 0 0 1-2.367-2.367V35.58a2.37 2.37 0 0 1 2.367-2.368 2.37 2.37 0 0 1 2.367 2.367v4.975ZM31.336 35.46H28.97v-1.022c0-2.481 2.02-4.5 4.5-4.5a1.364 1.364 0 1 0 0-2.728c-3.985 0-7.227 3.243-7.227 7.228v6.116a5.087 5.087 0 0 0 5.103 5.094c.3 0 .602-.026.904-.079 2.054-.361 3.742-2.048 4.102-4.103a5.11 5.11 0 0 0-1.112-4.187 5.082 5.082 0 0 0-3.903-1.82Zm2.33 5.534c-.165.93-.958 1.725-1.889 1.889a2.37 2.37 0 0 1-2.808-2.329v-2.367h2.367c.702 0 1.363.308 1.814.846.459.545.64 1.242.515 1.961Z"/></g><defs><clipPath id="fa"><path fill="#fff" d="M0 0h75v75H0z"/></clipPath></defs></svg><svg fill="none" viewBox="0 0 20 20" id="phone" xmlns="http://www.w3.org/2000/svg"><g clip-path="url(#ha)" fill="#fff"><path d="M15.205 13.23c-.653-.645-1.469-.645-2.118 0-.495.492-.99.983-1.477 1.482-.134.137-.246.167-.408.075-.32-.175-.662-.316-.97-.508-1.436-.903-2.639-2.064-3.704-3.37-.529-.65-.999-1.345-1.328-2.128-.066-.158-.054-.262.075-.39.496-.48.978-.97 1.465-1.462.679-.682.679-1.481-.004-2.168-.387-.391-.774-.774-1.161-1.165-.4-.4-.795-.803-1.199-1.199-.653-.637-1.469-.637-2.118.004-.5.491-.978.995-1.486 1.478-.47.445-.707.99-.757 1.627-.08 1.036.175 2.014.532 2.967.733 1.973 1.848 3.725 3.2 5.332a19.804 19.804 0 0 0 6.56 5.131c1.149.558 2.339.987 3.633 1.057.89.05 1.665-.174 2.285-.87.424-.474.903-.907 1.353-1.36.666-.675.67-1.49.008-2.156-.79-.795-1.586-1.586-2.38-2.377ZM14.41 9.913l1.536-.262a6.864 6.864 0 0 0-1.918-3.704 6.827 6.827 0 0 0-3.912-1.952L9.899 5.54a5.296 5.296 0 0 1 3.03 1.511 5.296 5.296 0 0 1 1.482 2.863ZM16.812 3.238A11.323 11.323 0 0 0 10.319 0l-.216 1.544c2.14.3 4.079 1.27 5.61 2.797a9.81 9.81 0 0 1 2.751 5.306L20 9.385a11.407 11.407 0 0 0-3.188-6.147Z"/></g><defs><clipPath id="ha"><path fill="#fff" d="M0 0h20v20H0z"/></clipPath></defs></svg><svg fill="none" viewBox="0 0 14 14" id="phone-mobile" xmlns="http://www.w3.org/2000/svg"><path d="M10.644 9.261c-.458-.451-1.029-.451-1.483 0-.347.344-.694.688-1.034 1.037-.094.097-.172.117-.286.053-.224-.123-.463-.222-.679-.356-1.005-.632-1.847-1.445-2.593-2.36-.37-.454-.699-.94-.929-1.488-.047-.11-.038-.184.053-.274.346-.335.684-.679 1.025-1.022.475-.478.475-1.038-.003-1.518-.27-.274-.542-.542-.813-.816-.28-.28-.556-.562-.839-.839-.457-.446-1.028-.446-1.483.003-.35.344-.684.696-1.04 1.034-.329.312-.495.694-.53 1.14-.055.725.123 1.41.373 2.076.513 1.381 1.294 2.608 2.24 3.732a13.865 13.865 0 0 0 4.592 3.592c.804.39 1.637.69 2.543.74.623.035 1.165-.122 1.6-.608.296-.333.631-.636.946-.953.466-.472.47-1.043.006-1.51-.554-.556-1.11-1.11-1.666-1.663Z" fill="#5F24A8"/><path d="m10.087 6.94 1.075-.184A4.805 4.805 0 0 0 9.82 4.163a4.779 4.779 0 0 0-2.738-1.366l-.152 1.08A3.708 3.708 0 0 1 9.05 4.936a3.707 3.707 0 0 1 1.037 2.004Z" fill="#0039A8"/><path d="M11.768 2.267A7.927 7.927 0 0 0 7.223 0l-.151 1.08a6.873 6.873 0 0 1 3.927 1.959 6.868 6.868 0 0 1 1.925 3.714L14 6.569a7.985 7.985 0 0 0-2.231-4.302Z" fill="#020BDE"/></svg><svg fill="none" viewBox="0 0 60 60" id="quality" xmlns="http://www.w3.org/2000/svg"><path d="M30 1.875a28.13 28.13 0 0 0-24.16 42.53.936.936 0 0 0-.057 1.115l1.061 1.593L2.33 49.82a.937.937 0 0 0 .299 1.723l3.891.779-.26 4.814a.938.938 0 0 0 1.418.854l7.16-4.3a28.14 28.14 0 0 0 30.324 0l7.16 4.3a.938.938 0 0 0 1.42-.854l-.261-4.814 3.891-.779a.937.937 0 0 0 .299-1.723l-4.515-2.708 1.062-1.593a.937.937 0 0 0-.057-1.116A28.128 28.128 0 0 0 30 1.875ZM10.59 44.107a44.856 44.856 0 0 1 38.82 0l2.648 1.271-2.705 4.058a46.726 46.726 0 0 0-38.707 0l-2.705-4.058 2.65-1.271ZM30 37.815a47.033 47.033 0 0 0-15.548 2.667A18.6 18.6 0 0 1 11.25 30c0-10.339 8.411-18.75 18.75-18.75S48.75 19.661 48.75 30a18.612 18.612 0 0 1-3.202 10.482A47.032 47.032 0 0 0 30 37.815Zm6.489 9.778a18.77 18.77 0 0 1-12.978 0 44.243 44.243 0 0 1 12.978 0ZM8.227 55.474l.21-3.86a.937.937 0 0 0-.753-.97l-2.31-.463 2.512-1.506 1.647 2.47a.937.937 0 0 0 1.183.326 43.17 43.17 0 0 1 1.904-.85l1.055 1.581-5.448 3.272Zm7.626-3.36a.944.944 0 0 0-.073-.134l-1.375-2.063a45.266 45.266 0 0 1 5.868-1.727 20.64 20.64 0 0 0 19.454 0 45.245 45.245 0 0 1 5.868 1.727l-1.375 2.062a.942.942 0 0 0-.073.135 26.265 26.265 0 0 1-28.293 0Zm38.773-1.933-2.31.462a.937.937 0 0 0-.752.97l.209 3.861-5.448-3.272 1.055-1.582c.642.27 1.276.553 1.905.851a.938.938 0 0 0 1.183-.326l1.647-2.47 2.51 1.506Zm-2.117-6.667-2.288-1.098c-.942-.452-1.9-.872-2.872-1.26A20.473 20.473 0 0 0 50.625 30c0-11.373-9.252-20.625-20.625-20.625S9.375 18.627 9.375 30a20.46 20.46 0 0 0 3.275 11.157c-.971.388-1.928.808-2.87 1.26l-2.287 1.097a26.25 26.25 0 1 1 45.016 0Z" fill="#FF5C00"/><path d="M38.906 22.5H33.75a.938.938 0 0 1-.938-.938V18.75A2.816 2.816 0 0 0 30 15.937h-1.875a.938.938 0 0 0-.938.938v2.066a5.354 5.354 0 0 1-1.579 3.812l-.684.684h-5.236a.938.938 0 0 0-.938.938v10.313a.938.938 0 0 0 .938.937h16.406a2.342 2.342 0 0 0 2.191-3.176 2.343 2.343 0 0 0 .938-2.813 2.343 2.343 0 0 0 .937-2.813 2.344 2.344 0 0 0-1.254-4.323Zm-18.281 2.813h3.75v8.437h-3.75v-8.438Zm18.281 0h-.937a.938.938 0 0 0 0 1.875.469.469 0 0 1 0 .937h-.938a.938.938 0 0 0 0 1.875.469.469 0 0 1 0 .938h-.937a.938.938 0 0 0 0 1.875.469.469 0 0 1 0 .937H26.25v-8.987l.684-.684a7.22 7.22 0 0 0 2.128-5.138v-1.128H30a.938.938 0 0 1 .938.937v2.813a2.816 2.816 0 0 0 2.812 2.812h5.156a.469.469 0 0 1 0 .938ZM28.056 42.21l.867.631-.331 1.02a.35.35 0 0 0 .54.393l.868-.63.867.63a.351.351 0 0 0 .541-.393l-.331-1.02.867-.63a.352.352 0 0 0-.206-.636h-1.072l-.332-1.02a.35.35 0 0 0-.668 0l-.332 1.02h-1.072a.352.352 0 0 0-.206.636ZM22.646 42.889l.867.63-.332 1.02a.352.352 0 0 0 .541.392l.868-.63.867.63a.351.351 0 0 0 .541-.393l-.331-1.02.867-.63a.353.353 0 0 0-.207-.635h-1.072l-.33-1.02a.352.352 0 0 0-.67 0l-.33 1.02h-1.073a.351.351 0 0 0-.206.636ZM33.466 42.889l.867.63-.331 1.02a.352.352 0 0 0 .541.392l.867-.63.867.63a.352.352 0 0 0 .541-.393l-.33-1.02.866-.63a.351.351 0 0 0-.206-.635h-1.072l-.331-1.02a.351.351 0 0 0-.67 0l-.33 1.02h-1.072a.352.352 0 0 0-.207.636Z" fill="#FF5C00"/></svg><svg fill="none" viewBox="0 0 30 30" id="telegram" xmlns="http://www.w3.org/2000/svg"><g clip-path="url(#ja)"><path d="M15 30c8.284 0 15-6.716 15-15 0-8.284-6.716-15-15-15C6.716 0 0 6.716 0 15c0 8.284 6.716 15 15 15Z" fill="#41B4E6"/><path d="M30 15c0-.365-.014-.727-.04-1.086l-6.216-6.217-17.488 6.879 6.691 6.69.088.317.114-.115-.114.115 7.401 7.401C26.033 26.807 30 21.367 30 15Z" fill="#0091C8"/><path d="m13.543 17.186 6.779 5.118 3.422-14.607-17.488 6.879 5.321 1.762 9.712-6.514-7.746 7.362Z" fill="#fff"/><path d="m11.577 16.338 1.458 5.245.508-4.397 7.746-7.362-9.712 6.514Z" fill="#D2D2D7"/><path d="m15.746 18.849-2.711 2.734.508-4.397 2.203 1.663Z" fill="#B9B9BE"/></g><defs><clipPath id="ja"><path fill="#fff" d="M0 0h30v30H0z"/></clipPath></defs></svg><svg fill="none" viewBox="0 0 29 29" id="vk" xmlns="http://www.w3.org/2000/svg"><g clip-path="url(#ka)"><path d="M14.5 29C22.508 29 29 22.508 29 14.5S22.508 0 14.5 0 0 6.492 0 14.5 6.492 29 14.5 29Z" fill="#4D76A1"/><path fill-rule="evenodd" clip-rule="evenodd" d="M13.952 20.86h1.138s.344-.038.52-.227c.161-.174.156-.5.156-.5s-.022-1.527.687-1.752c.698-.222 1.595 1.476 2.546 2.128.72.494 1.266.386 1.266.386l2.542-.035s1.33-.082.7-1.128c-.052-.086-.367-.774-1.89-2.188-1.595-1.48-1.381-1.24.54-3.8 1.169-1.559 1.636-2.51 1.49-2.918-.14-.388-1-.286-1-.286l-2.862.018s-.212-.029-.37.065c-.154.093-.253.308-.253.308s-.453 1.206-1.057 2.232c-1.275 2.165-1.785 2.279-1.993 2.144-.484-.313-.363-1.258-.363-1.93 0-2.097.318-2.972-.62-3.199-.311-.075-.54-.124-1.336-.132-1.022-.01-1.886.003-2.376.243-.325.16-.577.514-.424.535.19.025.618.116.845.425.294.399.283 1.295.283 1.295s.169 2.47-.393 2.777c-.386.21-.916-.22-2.052-2.183-.583-1.006-1.022-2.118-1.022-2.118s-.085-.208-.236-.32a1.186 1.186 0 0 0-.44-.177l-2.72.018s-.409.011-.559.189c-.133.158-.01.484-.01.484s2.13 4.983 4.541 7.495c2.211 2.302 4.722 2.15 4.722 2.15Z" fill="#fff"/></g><defs><clipPath id="ka"><path fill="#fff" d="M0 0h29v29H0z"/></clipPath></defs></svg><svg fill="none" viewBox="0 0 30 30" id="whatsapp" xmlns="http://www.w3.org/2000/svg"><g clip-path="url(#la)"><path d="M25.65 4.311C22.8 1.556 19.05 0 15.056 0 3.594 0-3.604 12.419 2.12 22.297L0 30l7.919-2.065c3.45 1.864 6.276 1.699 7.145 1.809 13.291 0 19.907-16.08 10.567-25.384l.019-.049Z" fill="#ECEFF1"/><path d="m15.084 27.189-.008-.002h-.02c-3.977 0-6.518-1.883-6.768-1.992L3.6 26.414l1.256-4.556-.298-.47a12.336 12.336 0 0 1-1.895-6.574c0-10.992 13.43-16.488 21.203-8.719 7.754 7.688 2.31 21.094-8.782 21.094Z" fill="#4CAF50"/><path d="m21.884 17.884-.012.093c-.376-.187-2.208-1.083-2.55-1.207-.766-.284-.55-.045-2.02 1.64-.22.244-.437.262-.808.094-.375-.188-1.579-.582-3.004-1.857-1.11-.993-1.855-2.212-2.075-2.587-.366-.633.4-.723 1.098-2.043.124-.262.06-.468-.032-.654-.094-.188-.84-2.025-1.152-2.758-.3-.73-.609-.638-.84-.638-.72-.062-1.247-.052-1.71.43-2.018 2.218-1.509 4.505.217 6.938 3.393 4.44 5.2 5.258 8.505 6.392.893.284 1.706.244 2.35.152.718-.114 2.209-.902 2.52-1.783.319-.881.319-1.612.225-1.781-.092-.169-.337-.263-.712-.431Z" fill="#FAFAFA"/></g><defs><clipPath id="la"><path fill="#fff" d="M0 0h30v30H0z"/></clipPath></defs></svg></svg>